<svg width="24" height="24" viewBox="0 0 24 24" fill="none" xmlns="http://www.w3.org/2000/svg">
<g clip-path="url(#clip0_159_4818)">
<path d="M18.9838 8C18.9838 8.26522 18.8781 8.51957 18.6899 8.70711C18.5018 8.89464 18.2466 9 17.9805 9C17.4565 8.96619 16.9366 9.11075 16.5058 9.41C16.6876 9.5812 16.8237 9.79487 16.9018 10.0317C16.98 10.2685 16.9977 10.521 16.9533 10.7663C16.909 11.0117 16.804 11.2422 16.6478 11.4369C16.4916 11.6316 16.2893 11.7845 16.0589 11.8817C15.8286 11.9789 15.5776 12.0173 15.3287 11.9935C15.0797 11.9697 14.8406 11.8844 14.633 11.7454C14.4254 11.6064 14.2559 11.4179 14.1397 11.1972C14.0235 10.9764 13.9643 10.7303 13.9676 10.481C13.9676 9.5 14.6778 7.006 17.9805 7C18.2466 7 18.5018 7.10536 18.6899 7.29289C18.8781 7.48043 18.9838 7.73478 18.9838 8ZM6.94484 10.5C6.94736 10.8978 7.10834 11.2784 7.39234 11.5579C7.67635 11.8374 8.06012 11.993 8.45923 11.9905C8.85835 11.988 9.24012 11.8275 9.52055 11.5444C9.80098 11.2614 9.9571 10.8788 9.95457 10.481C9.95457 9.5 9.24427 7.006 5.94159 7C5.67552 7 5.42034 7.10536 5.23219 7.29289C5.04405 7.48043 4.93835 7.73478 4.93835 8C4.93835 8.26522 5.04405 8.51957 5.23219 8.70711C5.42034 8.89464 5.67552 9 5.94159 9C6.4661 8.96583 6.98672 9.11002 7.41837 9.409C7.2686 9.54876 7.14927 9.71774 7.06781 9.90543C6.98634 10.0931 6.94449 10.2955 6.94484 10.5ZM24 12C23.9965 15.1815 22.7271 18.2318 20.4701 20.4815C18.2131 22.7312 15.1529 23.9966 11.9611 24C-3.99053 23.4 -3.98351 0.6 11.9611 0C15.1529 0.00344108 18.2131 1.26883 20.4701 3.51852C22.7271 5.76821 23.9965 8.81846 24 12ZM21.9935 12C21.9906 9.34873 20.9327 6.80688 19.0518 4.93215C17.171 3.05742 14.6209 2.00291 11.9611 2C-1.32993 2.5 -1.32692 21.5 11.9611 22C14.6209 21.9971 17.171 20.9426 19.0518 19.0679C20.9327 17.1931 21.9906 14.6513 21.9935 12ZM17.6454 16.254C16.095 14.8343 14.0664 14.0464 11.9611 14.0464C9.85571 14.0464 7.82708 14.8343 6.27668 16.254C6.07792 16.4304 5.95759 16.6782 5.94216 16.943C5.92673 17.2078 6.01747 17.4679 6.19441 17.666C6.37135 17.8641 6.62 17.9841 6.88566 17.9994C7.15132 18.0148 7.41223 17.9244 7.61099 17.748C8.79183 16.6507 10.3462 16.0405 11.9606 16.0405C13.5749 16.0405 15.1293 16.6507 16.3101 17.748C16.5088 17.9245 16.7696 18.0151 17.0352 17.9999C17.3009 17.9847 17.5496 17.865 17.7267 17.667C17.9038 17.469 17.9947 17.209 17.9795 16.9442C17.9642 16.6794 17.8441 16.4305 17.6454 16.254Z" fill="#151A2D"/>
</g>
<defs>
<clipPath id="clip0_159_4818">
<rect width="24" height="24" fill="white"/>
</clipPath>
</defs>
</svg>
