<svg width="24" height="24" viewBox="0 0 24 24" fill="none" xmlns="http://www.w3.org/2000/svg">
<g clip-path="url(#clip0_159_4814)">
<path d="M6 12C5.447 12 5 11.552 5 11C5 9.108 6.232 7 8 7C9.768 7 11 9.108 11 11C11 11.552 10.553 12 10 12C9.447 12 9 11.552 9 11C9 9.946 8.32 9 8 9C7.68 9 7 9.946 7 11C7 11.552 6.553 12 6 12ZM13 11C13 11.552 13.447 12 14 12C14.553 12 15 11.552 15 11C15 9.946 15.68 9 16 9C16.32 9 17 9.946 17 11C17 11.552 17.447 12 18 12C18.553 12 19 11.552 19 11C19 9.108 17.768 7 16 7C14.232 7 13 9.108 13 11ZM12 18C15.107 18 17.563 15.838 17.666 15.746C18.077 15.379 18.112 14.749 17.746 14.337C17.379 13.925 16.748 13.888 16.336 14.253C16.316 14.271 14.331 16.001 12 16.001C9.669 16.001 7.689 14.275 7.664 14.253C7.252 13.888 6.623 13.923 6.254 14.334C5.887 14.746 5.922 15.378 6.334 15.746C6.437 15.838 8.893 18 12 18ZM19.957 6.002C20.273 6.256 20.726 6.256 21.042 6.002C22.025 5.213 23.999 3.44 23.999 1.925C23.999 0.862 23.215 0 22.249 0C21.283 0 20.499 0.862 20.499 1.925C20.499 0.862 19.715 0 18.749 0C17.783 0 16.999 0.862 16.999 1.925C16.999 3.439 18.973 5.213 19.956 6.002H19.957ZM5.25 17C4.284 17 3.5 17.862 3.5 18.925C3.5 17.862 2.716 17 1.75 17C0.784 17 0 17.862 0 18.925C0 20.439 1.974 22.213 2.957 23.002C3.273 23.256 3.726 23.256 4.042 23.002C5.025 22.213 6.999 20.44 6.999 18.925C6.999 17.862 6.216 17 5.25 17ZM22.313 8.038C21.782 8.188 21.473 8.741 21.624 9.272C21.873 10.156 22 11.073 22 12C22 17.514 17.514 22 12 22C11.073 22 10.155 21.874 9.272 21.624C8.737 21.475 8.187 21.782 8.038 22.314C7.888 22.845 8.196 23.398 8.727 23.548C9.788 23.848 10.888 24 11.999 24C18.616 24 23.999 18.617 23.999 12C23.999 10.89 23.847 9.789 23.547 8.728C23.397 8.196 22.846 7.89 22.313 8.038ZM1.181 15C1.241 15 1.302 14.995 1.363 14.983C1.906 14.883 2.265 14.362 2.166 13.819C2.057 13.222 2.001 12.611 2.001 12C2 6.486 6.486 2 12 2C12.612 2 13.225 2.055 13.819 2.165C14.373 2.266 14.883 1.905 14.983 1.362C15.083 0.819 14.723 0.298 14.18 0.198C13.466 0.067 12.733 0 11.999 0C5.383 0 0 5.383 0 12C0 12.731 0.066 13.465 0.198 14.181C0.287 14.663 0.707 15 1.18 15H1.181Z" fill="#151A2D"/>
</g>
<defs>
<clipPath id="clip0_159_4814">
<rect width="24" height="24" fill="white"/>
</clipPath>
</defs>
</svg>
