<svg width="24" height="24" viewBox="0 0 24 24" fill="none" xmlns="http://www.w3.org/2000/svg">
<g clip-path="url(#clip0_159_4816)">
<path d="M12 0C5.383 0 0 5.383 0 12C0 18.617 5.383 24 12 24C18.617 24 24 18.617 24 12C24 5.383 18.617 0 12 0ZM12 22C6.486 22 2 17.514 2 12C2 6.486 6.486 2 12 2C17.514 2 22 6.486 22 12C22 17.514 17.514 22 12 22ZM6 11C5.448 11 5 10.553 5 10C5 9.447 5.448 9 6 9H9C9.552 9 10 9.447 10 10C10 10.553 9.552 11 9 11H6ZM19 10C19 10.553 18.552 11 18 11H15C14.448 11 14 10.553 14 10C14 9.447 14.448 9 15 9H18C18.552 9 19 9.447 19 10ZM18 16C18 16.553 17.552 17 17 17H7C6.448 17 6 16.553 6 16C6 15.447 6.448 15 7 15H17C17.552 15 18 15.447 18 16Z" fill="#151A2D"/>
</g>
<defs>
<clipPath id="clip0_159_4816">
<rect width="24" height="24" fill="white"/>
</clipPath>
</defs>
</svg>
