<svg width="25" height="24" viewBox="0 0 25 24" fill="none" xmlns="http://www.w3.org/2000/svg">
<path d="M18.4429 9.098C18.8329 9.492 18.8268 10.125 18.4288 10.512L13.9693 14.857C13.1804 15.625 12.1647 16.008 11.1481 16.008C10.1425 16.008 9.13696 15.632 8.35105 14.879L6.43766 13.012C6.04068 12.625 6.03564 11.992 6.42557 11.598C6.81449 11.203 7.45431 11.198 7.85028 11.586L9.75762 13.447C10.5395 14.197 11.7738 14.193 12.5597 13.429L17.0182 9.085C17.4142 8.697 18.05 8.704 18.4429 9.098ZM24.2728 12C24.2728 18.617 18.849 24 12.1819 24C5.51472 24 0.0909424 18.617 0.0909424 12C0.0909424 5.383 5.51472 0 12.1819 0C18.849 0 24.2728 5.383 24.2728 12ZM22.2576 12C22.2576 6.486 17.7376 2 12.1819 2C6.62608 2 2.10609 6.486 2.10609 12C2.10609 17.514 6.62608 22 12.1819 22C17.7376 22 22.2576 17.514 22.2576 12Z" fill="#FFF9E8"/>
</svg>
