<svg width="25" height="24" viewBox="0 0 25 24" fill="none" xmlns="http://www.w3.org/2000/svg">
<path d="M24.0899 9.4006C23.217 7.92287 22.116 6.60289 20.8304 5.49305L23.5378 2.69408C23.7139 2.50555 23.8114 2.25304 23.8092 1.99094C23.807 1.72884 23.7053 1.47812 23.526 1.29278C23.3467 1.10745 23.1042 1.00232 22.8507 1.00004C22.5972 0.99776 22.3529 1.09852 22.1706 1.28061L19.2263 4.32848C17.4012 3.20772 15.3146 2.62357 13.1918 2.6391C7.20564 2.6391 3.79436 6.87553 2.29371 9.4006C1.8301 10.1758 1.58453 11.0692 1.58453 11.9806C1.58453 12.8921 1.8301 13.7855 2.29371 14.5607C3.1666 16.0384 4.26766 17.3584 5.55318 18.4682L2.84582 21.2672C2.75347 21.3594 2.67981 21.4697 2.62913 21.5917C2.57846 21.7136 2.55179 21.8448 2.55067 21.9775C2.54955 22.1103 2.57402 22.2419 2.62264 22.3648C2.67125 22.4876 2.74305 22.5992 2.83384 22.6931C2.92462 22.7869 3.03258 22.8612 3.15141 22.9114C3.27024 22.9617 3.39756 22.987 3.52595 22.9858C3.65434 22.9847 3.78121 22.9571 3.89918 22.9047C4.01715 22.8523 4.12384 22.7762 4.21304 22.6807L7.16406 19.6298C8.98695 20.7504 11.071 21.3355 13.1918 21.3222C19.178 21.3222 22.5892 17.0858 24.0899 14.5607C24.5535 13.7855 24.7991 12.8921 24.7991 11.9806C24.7991 11.0692 24.5535 10.1758 24.0899 9.4006ZM3.94134 13.5141C3.6659 13.0533 3.52 12.5223 3.52 11.9806C3.52 11.439 3.6659 10.908 3.94134 10.4472C5.2312 8.28201 8.14645 4.63836 13.1918 4.63836C14.7971 4.62907 16.38 5.02906 17.8001 5.80293L15.8537 7.81519C14.9254 7.17802 13.8125 6.89253 12.7037 7.00713C11.595 7.12174 10.5588 7.62939 9.77086 8.44396C8.98296 9.25852 8.49192 10.3298 8.38106 11.4761C8.27021 12.6223 8.54636 13.7729 9.16267 14.7326L6.9291 17.0418C5.74473 16.0519 4.73405 14.8585 3.94134 13.5141ZM16.0925 11.9806C16.0925 12.776 15.7869 13.5388 15.2429 14.1012C14.6989 14.6636 13.9611 14.9795 13.1918 14.9795C12.7611 14.9778 12.3363 14.8753 11.9493 14.6796L15.8025 10.6961C15.9917 11.0962 16.0909 11.5353 16.0925 11.9806ZM10.2911 11.9806C10.2911 11.1853 10.5967 10.4225 11.1407 9.86011C11.6847 9.29771 12.4225 8.98175 13.1918 8.98175C13.6226 8.98348 14.0473 9.086 14.4343 9.28164L10.5811 13.2652C10.3919 12.8651 10.2927 12.426 10.2911 11.9806ZM22.4423 13.5141C21.1524 15.6793 18.2372 19.3229 13.1918 19.3229C11.5865 19.3322 10.0037 18.9322 8.58349 18.1584L10.5299 16.1461C11.4582 16.7833 12.5711 17.0688 13.6799 16.9542C14.7886 16.8395 15.8248 16.3319 16.6127 15.5173C17.4007 14.7028 17.8917 13.6315 18.0025 12.4852C18.1134 11.339 17.8372 10.1884 17.2209 9.22866L19.4545 6.91952C20.6389 7.90943 21.6496 9.10276 22.4423 10.4472C22.7177 10.908 22.8636 11.439 22.8636 11.9806C22.8636 12.5223 22.7177 13.0533 22.4423 13.5141Z" fill="#FFF9E8"/>
</svg>
