<svg width="25" height="24" viewBox="0 0 25 24" fill="none" xmlns="http://www.w3.org/2000/svg">
<path d="M16.5533 9.707L14.2429 12L16.5533 14.293C16.9472 14.684 16.9472 15.316 16.5533 15.707C16.3568 15.902 16.0989 16 15.8409 16C15.583 16 15.3251 15.902 15.1286 15.707L12.8182 13.414L10.5078 15.707C10.3114 15.902 10.0534 16 9.79548 16C9.53754 16 9.2796 15.902 9.08312 15.707C8.68916 15.316 8.68916 14.684 9.08312 14.293L11.3935 12L9.08312 9.707C8.68916 9.316 8.68916 8.684 9.08312 8.293C9.47708 7.902 10.1139 7.902 10.5078 8.293L12.8182 10.586L15.1286 8.293C15.5225 7.902 16.1593 7.902 16.5533 8.293C16.9472 8.684 16.9472 9.316 16.5533 9.707ZM24.9091 12C24.9091 18.617 19.4853 24 12.8182 24C6.15107 24 0.727295 18.617 0.727295 12C0.727295 5.383 6.15107 0 12.8182 0C19.4853 0 24.9091 5.383 24.9091 12ZM22.894 12C22.894 6.486 18.374 2 12.8182 2C7.26243 2 2.74245 6.486 2.74245 12C2.74245 17.514 7.26243 22 12.8182 22C18.374 22 22.894 17.514 22.894 12Z" fill="#FFF9E8"/>
</svg>
