<svg width="25" height="24" viewBox="0 0 25 24" fill="none" xmlns="http://www.w3.org/2000/svg">
<path d="M9.07796 4.78889C8.87796 5.5 8.77796 6.24444 8.77796 7C8.77796 11.5333 12.4669 15.2222 17.0002 15.2222C17.7557 15.2222 18.5002 15.1222 19.2113 14.9222C18.0557 17.7667 15.2557 19.7778 12.0002 19.7778C7.71129 19.7778 4.22241 16.2889 4.22241 12C4.22241 8.74444 6.23352 5.94444 9.07796 4.78889ZM12.0002 2C6.47796 2 2.00018 6.47778 2.00018 12C2.00018 17.5222 6.47796 22 12.0002 22C17.5224 22 22.0002 17.5222 22.0002 12C22.0002 11.4889 21.9557 10.9778 21.8891 10.4889C20.8002 12.0111 19.0224 13 17.0002 13C13.6891 13 11.0002 10.3111 11.0002 7C11.0002 4.98889 11.9891 3.2 13.5113 2.11111C13.0224 2.04444 12.5113 2 12.0002 2Z" fill="#FFF9E8"/>
</svg>
