<svg width="25" height="24" viewBox="0 0 25 24" fill="none" xmlns="http://www.w3.org/2000/svg">
<path d="M17.8122 2C16.678 2.01744 15.5687 2.33034 14.596 2.90712C13.6234 3.4839 12.822 4.30413 12.2727 5.28498C11.7235 4.30413 10.9221 3.4839 9.94943 2.90712C8.97681 2.33034 7.86742 2.01744 6.7333 2C4.92537 2.07764 3.22201 2.85932 1.99536 4.17429C0.768702 5.48926 0.118463 7.23061 0.1867 9.01791C0.1867 13.5442 5.00701 18.4876 9.04979 21.8393C9.95243 22.589 11.0937 23 12.2727 23C13.4518 23 14.593 22.589 15.4957 21.8393C19.5385 18.4876 24.3588 13.5442 24.3588 9.01791C24.427 7.23061 23.7768 5.48926 22.5501 4.17429C21.3235 2.85932 19.6201 2.07764 17.8122 2ZM14.2015 20.3162C13.6616 20.7656 12.9785 21.012 12.2727 21.012C11.567 21.012 10.8839 20.7656 10.344 20.3162C5.16917 16.0249 2.20104 11.9077 2.20104 9.01791C2.13219 7.75839 2.57003 6.52305 3.41907 5.58132C4.26811 4.6396 5.45947 4.06789 6.7333 3.9909C8.00714 4.06789 9.19849 4.6396 10.0475 5.58132C10.8966 6.52305 11.3344 7.75839 11.2656 9.01791C11.2656 9.28192 11.3717 9.53512 11.5606 9.7218C11.7494 9.90848 12.0056 10.0134 12.2727 10.0134C12.5399 10.0134 12.796 9.90848 12.9849 9.7218C13.1738 9.53512 13.2799 9.28192 13.2799 9.01791C13.2111 7.75839 13.6489 6.52305 14.4979 5.58132C15.347 4.6396 16.5383 4.06789 17.8122 3.9909C19.086 4.06789 20.2774 4.6396 21.1264 5.58132C21.9754 6.52305 22.4133 7.75839 22.3444 9.01791C22.3444 11.9077 19.3763 16.0249 14.2015 20.3123V20.3162Z" fill="#151A2D"/>
</svg>
