<svg width="26" height="24" viewBox="0 0 26 24" fill="none" xmlns="http://www.w3.org/2000/svg">
<path d="M12.9092 9.27273C14.4092 9.27273 15.6365 10.5 15.6365 12C15.6365 13.5 14.4092 14.7273 12.9092 14.7273C11.4092 14.7273 10.1819 13.5 10.1819 12C10.1819 10.5 11.4092 9.27273 12.9092 9.27273ZM12.9092 7.45455C10.4001 7.45455 8.36373 9.49091 8.36373 12C8.36373 14.5091 10.4001 16.5455 12.9092 16.5455C15.4183 16.5455 17.4546 14.5091 17.4546 12C17.4546 9.49091 15.4183 7.45455 12.9092 7.45455ZM3.81827 12.9091H5.63645C6.13645 12.9091 6.54554 12.5 6.54554 12C6.54554 11.5 6.13645 11.0909 5.63645 11.0909H3.81827C3.31827 11.0909 2.90918 11.5 2.90918 12C2.90918 12.5 3.31827 12.9091 3.81827 12.9091ZM20.1819 12.9091H22.0001C22.5001 12.9091 22.9092 12.5 22.9092 12C22.9092 11.5 22.5001 11.0909 22.0001 11.0909H20.1819C19.6819 11.0909 19.2728 11.5 19.2728 12C19.2728 12.5 19.6819 12.9091 20.1819 12.9091ZM12.0001 2.90909V4.72727C12.0001 5.22727 12.4092 5.63636 12.9092 5.63636C13.4092 5.63636 13.8183 5.22727 13.8183 4.72727V2.90909C13.8183 2.40909 13.4092 2 12.9092 2C12.4092 2 12.0001 2.40909 12.0001 2.90909ZM12.0001 19.2727V21.0909C12.0001 21.5909 12.4092 22 12.9092 22C13.4092 22 13.8183 21.5909 13.8183 21.0909V19.2727C13.8183 18.7727 13.4092 18.3636 12.9092 18.3636C12.4092 18.3636 12.0001 18.7727 12.0001 19.2727ZM7.44554 5.25455C7.091 4.9 6.50918 4.9 6.16373 5.25455C5.80918 5.60909 5.80918 6.19091 6.16373 6.53636L7.12736 7.5C7.48191 7.85455 8.06373 7.85455 8.40918 7.5C8.75463 7.14545 8.76373 6.56364 8.40918 6.21818L7.44554 5.25455ZM18.691 16.5C18.3365 16.1455 17.7546 16.1455 17.4092 16.5C17.0546 16.8545 17.0546 17.4364 17.4092 17.7818L18.3728 18.7455C18.7274 19.1 19.3092 19.1 19.6546 18.7455C20.0092 18.3909 20.0092 17.8091 19.6546 17.4636L18.691 16.5ZM19.6546 6.53636C20.0092 6.18182 20.0092 5.6 19.6546 5.25455C19.3001 4.9 18.7183 4.9 18.3728 5.25455L17.4092 6.21818C17.0546 6.57273 17.0546 7.15455 17.4092 7.5C17.7637 7.84545 18.3455 7.85455 18.691 7.5L19.6546 6.53636ZM8.40918 17.7818C8.76373 17.4273 8.76373 16.8455 8.40918 16.5C8.05463 16.1455 7.47282 16.1455 7.12736 16.5L6.16373 17.4636C5.80918 17.8182 5.80918 18.4 6.16373 18.7455C6.51827 19.0909 7.10009 19.1 7.44554 18.7455L8.40918 17.7818Z" fill="#FFF9E8"/>
</svg>
