<svg width="25" height="24" viewBox="0 0 25 24" fill="none" xmlns="http://www.w3.org/2000/svg">
<path d="M18.3332 8.66667H17.3808V6.7619C17.3808 4.13333 15.2475 2 12.6189 2C9.99035 2 7.85702 4.13333 7.85702 6.7619V8.66667H6.90464C5.85702 8.66667 4.99988 9.52381 4.99988 10.5714V20.0952C4.99988 21.1429 5.85702 22 6.90464 22H18.3332C19.3808 22 20.238 21.1429 20.238 20.0952V10.5714C20.238 9.52381 19.3808 8.66667 18.3332 8.66667ZM9.76178 6.7619C9.76178 5.18095 11.038 3.90476 12.6189 3.90476C14.1999 3.90476 15.4761 5.18095 15.4761 6.7619V8.66667H9.76178V6.7619ZM18.3332 20.0952H6.90464V10.5714H18.3332V20.0952ZM12.6189 17.2381C13.6665 17.2381 14.5237 16.381 14.5237 15.3333C14.5237 14.2857 13.6665 13.4286 12.6189 13.4286C11.5713 13.4286 10.7142 14.2857 10.7142 15.3333C10.7142 16.381 11.5713 17.2381 12.6189 17.2381Z" fill="#FFF9E8"/>
</svg>
