<svg width="25" height="24" viewBox="0 0 25 24" fill="none" xmlns="http://www.w3.org/2000/svg">
<path d="M12.2052 22C13.3334 22 14.2565 21.0769 14.2565 19.9487H10.1539C10.1539 21.0769 11.077 22 12.2052 22ZM18.359 15.8462V10.7179C18.359 7.56923 16.6872 4.93333 13.7437 4.2359V3.53846C13.7437 2.68718 13.0565 2 12.2052 2C11.3539 2 10.6667 2.68718 10.6667 3.53846V4.2359C7.73339 4.93333 6.05134 7.55897 6.05134 10.7179V15.8462L4.00006 17.8974V18.9231H20.4103V17.8974L18.359 15.8462ZM16.3078 16.8718H8.10263V10.7179C8.10263 8.17436 9.65134 6.10256 12.2052 6.10256C14.759 6.10256 16.3078 8.17436 16.3078 10.7179V16.8718Z" fill="#FFF9E8"/>
</svg>
