<svg width="25" height="24" viewBox="0 0 25 24" fill="none" xmlns="http://www.w3.org/2000/svg">
<path d="M12.2727 6.54545V9.27273L15.9091 5.63636L12.2727 2V4.72727C8.25455 4.72727 5 7.98182 5 12C5 13.4273 5.41818 14.7545 6.12727 15.8727L7.45455 14.5455C7.04545 13.7909 6.81818 12.9182 6.81818 12C6.81818 8.99091 9.26364 6.54545 12.2727 6.54545ZM18.4182 8.12727L17.0909 9.45455C17.4909 10.2182 17.7273 11.0818 17.7273 12C17.7273 15.0091 15.2818 17.4545 12.2727 17.4545V14.7273L8.63636 18.3636L12.2727 22V19.2727C16.2909 19.2727 19.5455 16.0182 19.5455 12C19.5455 10.5727 19.1273 9.24545 18.4182 8.12727Z" fill="#FFF9E8"/>
</svg>
