<svg width="25" height="24" viewBox="0 0 25 24" fill="none" xmlns="http://www.w3.org/2000/svg">
<path d="M24.3538 22.3067L18.3445 16.3426C19.9821 14.3548 20.7873 11.8184 20.5934 9.25796C20.3996 6.69754 19.2216 4.309 17.3031 2.5864C15.3846 0.863809 12.8724 -0.0610491 10.2861 0.00313002C7.69986 0.0673091 5.23736 1.11562 3.40801 2.93121C1.57866 4.74681 0.522409 7.19079 0.457744 9.75763C0.393078 12.3245 1.32494 14.8178 3.06059 16.7219C4.79623 18.6259 7.20286 19.7951 9.78269 19.9874C12.3625 20.1798 14.9181 19.3807 16.921 17.7554L22.9303 23.7195C23.1201 23.9015 23.3744 24.0022 23.6384 24C23.9024 23.9977 24.1549 23.8926 24.3415 23.7073C24.5282 23.5221 24.6341 23.2715 24.6364 23.0095C24.6387 22.7475 24.5372 22.4951 24.3538 22.3067ZM10.5543 18.0172C8.96137 18.0172 7.40421 17.5484 6.07974 16.6701C4.75527 15.7917 3.72297 14.5433 3.11338 13.0827C2.5038 11.6221 2.3443 10.0149 2.65507 8.46433C2.96583 6.91376 3.7329 5.48946 4.85927 4.37156C5.98564 3.25366 7.42072 2.49236 8.98304 2.18393C10.5454 1.8755 12.1648 2.0338 13.6364 2.6388C15.1081 3.24381 16.366 4.26835 17.2509 5.58286C18.1359 6.89737 18.6083 8.44282 18.6083 10.0238C18.6059 12.143 17.7566 14.1748 16.2467 15.6734C14.7368 17.1719 12.6896 18.0148 10.5543 18.0172Z" fill="#FFF9E8"/>
</svg>
