<svg width="25" height="24" viewBox="0 0 25 24" fill="none" xmlns="http://www.w3.org/2000/svg">
<path d="M24.3716 8.8887C24.1655 8.21606 23.7537 7.62927 23.1972 7.21513C22.6407 6.80099 21.9689 6.58147 21.2813 6.58905H16.8792L15.5422 2.3162C15.3319 1.64361 14.9188 1.05688 14.3623 0.640595C13.8058 0.224314 13.1347 0 12.4459 0C11.757 0 11.086 0.224314 10.5295 0.640595C9.97303 1.05688 9.55987 1.64361 9.34962 2.3162L8.01256 6.58905H3.61046C2.92505 6.59005 2.25748 6.81311 1.7031 7.22636C1.14872 7.63962 0.735891 8.22194 0.523575 8.89013C0.311259 9.55833 0.31032 10.2782 0.52089 10.947C0.731461 11.6158 1.14277 12.1992 1.69607 12.614L5.27901 15.3L3.91677 19.6256C3.69662 20.2965 3.69383 21.0223 3.90882 21.695C4.1238 22.3676 4.54504 22.951 5.10974 23.3581C5.66476 23.7784 6.33736 24.0035 7.02731 24C7.71726 23.9964 8.38762 23.7644 8.93852 23.3385L12.4459 20.6917L15.9543 23.3354C16.5083 23.7532 17.1773 23.9802 17.865 23.9836C18.5528 23.9871 19.2239 23.7668 19.7818 23.3545C20.3398 22.9422 20.7559 22.3592 20.9703 21.6891C21.1847 21.0191 21.1863 20.2966 20.975 19.6256L19.6128 15.3L23.1998 12.614C23.7594 12.2044 24.1755 11.621 24.3866 10.9501C24.5976 10.2791 24.5923 9.55634 24.3716 8.8887ZM22.0108 10.9456L17.8354 14.0748C17.6639 14.2031 17.5363 14.3836 17.4708 14.5907C17.4053 14.7977 17.4053 15.0207 17.4707 15.2277L19.0576 20.2589C19.1379 20.514 19.1372 20.7888 19.0556 21.0435C18.9741 21.2983 18.8158 21.5199 18.6036 21.6766C18.3914 21.8334 18.1362 21.9171 17.8747 21.9157C17.6132 21.9143 17.3589 21.828 17.1483 21.669L13.0424 18.5698C12.8694 18.4395 12.6605 18.3693 12.4459 18.3693C12.2313 18.3693 12.0223 18.4395 11.8494 18.5698L7.74354 21.669C7.53304 21.8301 7.27798 21.9183 7.01533 21.9207C6.75268 21.9231 6.4961 21.8397 6.28278 21.6826C6.06947 21.5255 5.91051 21.3028 5.82894 21.0468C5.74737 20.7908 5.74745 20.5148 5.82914 20.2589L7.42111 15.2277C7.48652 15.0207 7.48647 14.7977 7.42098 14.5907C7.35548 14.3836 7.22787 14.2031 7.05637 14.0748L2.88098 10.9456C2.6707 10.7877 2.51446 10.5658 2.43456 10.3114C2.35467 10.0571 2.35521 9.78333 2.43612 9.52932C2.51702 9.2753 2.67415 9.054 2.88505 8.89702C3.09595 8.74004 3.34985 8.65541 3.61046 8.65522H8.7491C8.96242 8.65522 9.17023 8.58579 9.34261 8.45695C9.51499 8.3281 9.64304 8.14649 9.70831 7.93826L11.2701 2.94741C11.3502 2.69202 11.5074 2.46929 11.7188 2.31129C11.9303 2.15329 12.1852 2.06816 12.4469 2.06816C12.7086 2.06816 12.9635 2.15329 13.175 2.31129C13.3865 2.46929 13.5436 2.69202 13.6238 2.94741L15.1855 7.93826C15.2508 8.14649 15.3788 8.3281 15.5512 8.45695C15.7236 8.58579 15.9314 8.65522 16.1447 8.65522H21.2833C21.544 8.65541 21.7979 8.74004 22.0088 8.89702C22.2197 9.054 22.3768 9.2753 22.4577 9.52932C22.5386 9.78333 22.5391 10.0571 22.4592 10.3114C22.3793 10.5658 22.2231 10.7877 22.0128 10.9456H22.0108Z" fill="#FFF9E8"/>
</svg>
