<svg width="25" height="24" viewBox="0 0 25 24" fill="none" xmlns="http://www.w3.org/2000/svg">
<path d="M21.4318 4H18.3083C18.0744 2.87141 17.4557 1.85735 16.5564 1.12872C15.657 0.40009 14.5321 0.00145452 13.3712 0H11.356C10.1951 0.00145452 9.07016 0.40009 8.17082 1.12872C7.27149 1.85735 6.65276 2.87141 6.4189 4H3.29542C3.02819 4 2.77191 4.10536 2.58295 4.29289C2.394 4.48043 2.28784 4.73478 2.28784 5C2.28784 5.26522 2.394 5.51957 2.58295 5.70711C2.77191 5.89464 3.02819 6 3.29542 6H4.30299V19C4.30459 20.3256 4.83588 21.5964 5.78032 22.5338C6.72476 23.4711 8.00523 23.9984 9.34087 24H15.3863C16.722 23.9984 18.0024 23.4711 18.9469 22.5338C19.8913 21.5964 20.4226 20.3256 20.4242 19V6H21.4318C21.699 6 21.9553 5.89464 22.1442 5.70711C22.3332 5.51957 22.4394 5.26522 22.4394 5C22.4394 4.73478 22.3332 4.48043 22.1442 4.29289C21.9553 4.10536 21.699 4 21.4318 4ZM11.356 2H13.3712C13.9961 2.00076 14.6056 2.19338 15.1159 2.55144C15.6262 2.90951 16.0125 3.41549 16.2216 4H8.50559C8.71475 3.41549 9.10097 2.90951 9.61129 2.55144C10.1216 2.19338 10.7311 2.00076 11.356 2ZM18.4091 19C18.4091 19.7956 18.0906 20.5587 17.5237 21.1213C16.9568 21.6839 16.188 22 15.3863 22H9.34087C8.5392 22 7.77035 21.6839 7.20348 21.1213C6.63661 20.5587 6.31814 19.7956 6.31814 19V6H18.4091V19Z" fill="#FFF9E8"/>
<path d="M10.3484 18C10.6157 18 10.872 17.8946 11.0609 17.7071C11.2499 17.5196 11.356 17.2652 11.356 17V11C11.356 10.7348 11.2499 10.4804 11.0609 10.2929C10.872 10.1054 10.6157 10 10.3484 10C10.0812 10 9.82494 10.1054 9.63598 10.2929C9.44703 10.4804 9.34087 10.7348 9.34087 11V17C9.34087 17.2652 9.44703 17.5196 9.63598 17.7071C9.82494 17.8946 10.0812 18 10.3484 18Z" fill="#FFF9E8"/>
<path d="M14.3788 18C14.646 18 14.9023 17.8946 15.0912 17.7071C15.2802 17.5196 15.3863 17.2652 15.3863 17V11C15.3863 10.7348 15.2802 10.4804 15.0912 10.2929C14.9023 10.1054 14.646 10 14.3788 10C14.1115 10 13.8552 10.1054 13.6663 10.2929C13.4773 10.4804 13.3712 10.7348 13.3712 11V17C13.3712 17.2652 13.4773 17.5196 13.6663 17.7071C13.8552 17.8946 14.1115 18 14.3788 18Z" fill="#FFF9E8"/>
</svg>
