<svg width="24" height="24" viewBox="0 0 24 24" fill="none" xmlns="http://www.w3.org/2000/svg">
<path d="M7.0301 0.0839254C5.7533 0.144166 4.88138 0.347926 4.11914 0.647447C3.33026 0.954888 2.66162 1.36745 1.99634 2.03513C1.33106 2.70281 0.921379 3.37194 0.616099 4.16202C0.320659 4.92594 0.120499 5.79859 0.0640995 7.07611C0.00769946 8.35363 -0.00478054 8.76428 0.00145946 12.023C0.00769946 15.2817 0.0220995 15.6902 0.0840195 16.9704C0.144979 18.2469 0.348019 19.1186 0.647539 19.8811C0.955459 20.67 1.36754 21.3384 2.03546 22.0039C2.70338 22.6694 3.37202 23.0782 4.16402 23.3839C4.92722 23.6789 5.8001 23.88 7.07738 23.9359C8.35466 23.9918 8.76578 24.0048 12.0235 23.9986C15.2813 23.9923 15.6915 23.9779 16.9714 23.9172C18.2513 23.8565 19.1184 23.652 19.8811 23.3539C20.67 23.0453 21.3389 22.6339 22.0039 21.9658C22.669 21.2976 23.0784 20.628 23.3835 19.8374C23.6791 19.0742 23.88 18.2013 23.9355 16.925C23.9914 15.6441 24.0046 15.2352 23.9983 11.9769C23.9921 8.71868 23.9775 8.31019 23.9167 7.03051C23.856 5.75083 23.6527 4.88178 23.3535 4.11882C23.0451 3.32994 22.6335 2.66201 21.9658 1.99601C21.2981 1.33001 20.628 0.920808 19.8377 0.616487C19.074 0.321046 18.2016 0.119686 16.9243 0.0644854C15.6471 0.00928517 15.2359 -0.00487488 11.977 0.00136514C8.71802 0.00760516 8.31002 0.0215252 7.0301 0.0839254ZM7.17026 21.7771C6.00026 21.7262 5.36498 21.5318 4.94162 21.3691C4.38098 21.1531 3.98162 20.892 3.5597 20.4742C3.13778 20.0563 2.87858 19.6555 2.6597 19.0961C2.4953 18.6727 2.2973 18.0381 2.24258 16.8681C2.18306 15.6036 2.17058 15.2239 2.16362 12.0201C2.15666 8.81636 2.1689 8.43715 2.22434 7.17211C2.27426 6.00307 2.46986 5.36706 2.63234 4.94394C2.84834 4.38258 3.1085 3.98394 3.5273 3.56226C3.9461 3.14058 4.3457 2.8809 4.90562 2.66201C5.3285 2.49689 5.96306 2.30057 7.13258 2.24489C8.3981 2.18489 8.7773 2.17289 11.9806 2.16593C15.1839 2.15897 15.564 2.17097 16.83 2.22665C17.9991 2.27753 18.6353 2.47121 19.0579 2.63465C19.6188 2.85066 20.0179 3.1101 20.4396 3.52962C20.8613 3.94914 21.1212 4.3473 21.3401 4.90842C21.5055 5.3301 21.7018 5.96443 21.757 7.13467C21.8172 8.40019 21.8309 8.77964 21.8367 11.9827C21.8424 15.1857 21.8311 15.5661 21.7757 16.8307C21.7246 18.0007 21.5307 18.6362 21.3677 19.0601C21.1517 19.6205 20.8913 20.0201 20.4723 20.4415C20.0532 20.863 19.6541 21.1226 19.0939 21.3415C18.6715 21.5064 18.0363 21.7032 16.8677 21.7589C15.6022 21.8184 15.223 21.8309 12.0185 21.8378C8.81402 21.8448 8.43602 21.8318 7.1705 21.7771M16.9529 5.58642C16.9534 5.87125 17.0383 6.14954 17.197 6.38609C17.3556 6.62265 17.5808 6.80684 17.8442 6.91538C18.1075 7.02391 18.3971 7.05192 18.6764 6.99585C18.9556 6.93978 19.212 6.80216 19.413 6.60039C19.614 6.39862 19.7507 6.14176 19.8058 5.8623C19.8608 5.58285 19.8317 5.29334 19.7222 5.03041C19.6127 4.76747 19.4277 4.54292 19.1906 4.38514C18.9534 4.22736 18.6748 4.14345 18.39 4.14402C18.0082 4.14478 17.6423 4.29716 17.3728 4.56765C17.1033 4.83814 16.9523 5.20459 16.9529 5.58642ZM5.8385 12.012C5.84522 15.4152 8.60906 18.1677 12.0115 18.1613C15.414 18.1548 18.1685 15.3912 18.162 11.988C18.1555 8.58476 15.391 5.83147 11.988 5.83819C8.58506 5.84491 5.83202 8.60924 5.8385 12.012ZM7.99994 12.0076C7.99837 11.2165 8.23145 10.4427 8.66968 9.78399C9.10791 9.12531 9.73162 8.61137 10.4619 8.30717C11.1923 8.00296 11.9964 7.92216 12.7726 8.07496C13.5489 8.22777 14.2624 8.60733 14.8229 9.16565C15.3834 9.72396 15.7658 10.436 15.9217 11.2116C16.0776 11.9872 15.9999 12.7917 15.6986 13.5232C15.3973 14.2547 14.8859 14.8804 14.2289 15.3213C13.572 15.7621 12.7991 15.9983 12.0079 15.9998C11.4826 16.0009 10.9622 15.8985 10.4765 15.6985C9.99076 15.4985 9.54918 15.2047 9.17699 14.834C8.8048 14.4632 8.50929 14.0228 8.30733 13.5379C8.10537 13.0529 8.00092 12.533 7.99994 12.0076Z" fill="#FFF9E8"/>
</svg>
