<svg width="24" height="24" viewBox="0 0 24 24" fill="none" xmlns="http://www.w3.org/2000/svg">
<path d="M6.94484 9.5C6.98396 6.21 9.91545 6.21 9.95457 9.5C9.91545 12.79 6.98396 12.79 6.94484 9.5ZM15.4724 12C17.4428 11.973 17.4428 7.027 15.4724 7C13.502 7.027 13.502 11.973 15.4724 12ZM24 12C23.9965 15.1815 22.7271 18.2318 20.4701 20.4815C18.2131 22.7312 15.1529 23.9966 11.9611 24C-3.99053 23.4 -3.98351 0.6 11.9611 0C15.1529 0.00344108 18.2131 1.26883 20.4701 3.51852C22.7271 5.76821 23.9965 8.81846 24 12ZM21.9935 12C21.9906 9.34873 20.9327 6.80688 19.0518 4.93215C17.171 3.05742 14.6209 2.00291 11.9611 2C-1.32993 2.5 -1.32692 21.5 11.9611 22C14.6209 21.9971 17.171 20.9426 19.0518 19.0679C20.9327 17.1931 21.9906 14.6513 21.9935 12ZM16.7656 14.024C15.2264 14.6022 13.6045 14.9317 11.9611 15C10.3139 14.9328 8.68816 14.6033 7.14549 14.024C6.9517 13.9824 6.74989 13.9989 6.56553 14.0715C6.38117 14.1441 6.22252 14.2696 6.1096 14.432C5.99669 14.5944 5.93458 14.7865 5.9311 14.984C5.92762 15.1816 5.98294 15.3757 6.09007 15.542C6.6811 16.5787 7.53391 17.4433 8.56381 18.0499C9.59372 18.6565 10.7649 18.9841 11.9611 19C13.1557 18.9832 14.3252 18.6552 15.3533 18.0486C16.3815 17.442 17.2325 16.5779 17.822 15.542C17.9293 15.3757 17.9846 15.1814 17.9811 14.9837C17.9777 14.786 17.9154 14.5938 17.8024 14.4313C17.6893 14.2689 17.5305 14.1435 17.346 14.071C17.1614 13.9985 16.9595 13.9821 16.7656 14.024Z" fill="#FFF9E8"/>
</svg>
