<svg width="26" height="24" viewBox="0 0 26 24" fill="none" xmlns="http://www.w3.org/2000/svg">
<path d="M14.0074 7.75736L14.0074 11.0002H17.2747C17.8319 11.0002 18.2821 11.447 18.2821 12C18.2821 12.2758 18.1696 12.5261 17.9872 12.7071C17.8048 12.8881 17.5526 12.9998 17.2747 12.9998H14.0074L14.0074 16.2426C14.0074 16.5184 13.8948 16.7687 13.7124 16.9497C13.53 17.1308 13.2778 17.2425 12.9999 17.2425C12.4428 17.2425 11.9925 16.7956 11.9925 16.2426V12.9998L8.72516 12.9998C8.16802 12.9998 7.71774 12.553 7.71774 12C7.71774 11.447 8.16802 11.0002 8.72516 11.0002L11.9925 11.0002V7.75736C11.9925 7.2044 12.4428 6.75751 12.9999 6.75751C13.5571 6.75751 14.0074 7.2044 14.0074 7.75736ZM21.5495 3.51472C26.2639 8.19365 26.2639 15.8064 21.5495 20.4853C16.8351 25.1642 9.16475 25.1642 4.45038 20.4853C-0.263991 15.8064 -0.263991 8.19364 4.45038 3.51472C9.16475 -1.16421 16.8351 -1.16421 21.5495 3.51472ZM20.1246 4.92893C16.1961 1.02995 9.80383 1.02995 5.87531 4.92893C1.94678 8.82792 1.94678 15.1721 5.87531 19.0711C9.80383 22.9701 16.1961 22.9701 20.1246 19.0711C24.0531 15.1721 24.0531 8.82792 20.1246 4.92893Z" fill="#151A2D"/>
</svg>
