<svg width="25" height="24" viewBox="0 0 25 24" fill="none" xmlns="http://www.w3.org/2000/svg">
<path d="M12.6363 0C5.96919 0 0.54541 5.383 0.54541 12C0.54541 18.617 5.96919 24 12.6363 24C19.3034 24 24.7272 18.617 24.7272 12C24.7272 5.383 19.3034 0 12.6363 0ZM12.6363 22C7.08055 22 2.56056 17.514 2.56056 12C2.56056 6.486 7.08055 2 12.6363 2C18.1921 2 22.7121 6.486 22.7121 12C22.7121 17.514 18.1921 22 12.6363 22ZM18.6818 12C18.6818 12.552 18.2304 13 17.6742 13H12.6363V16.361C12.6363 17.056 11.7779 17.405 11.2761 16.913L6.82462 12.552C6.51328 12.247 6.51328 11.753 6.82462 11.448L11.2761 7.087C11.7779 6.595 12.6363 6.944 12.6363 7.639V11H17.6742C18.2304 11 18.6818 11.448 18.6818 12Z" fill="#151A2D"/>
</svg>
