<svg width="25" height="24" viewBox="0 0 25 24" fill="none" xmlns="http://www.w3.org/2000/svg">
<path d="M24.2717 9.7615C22.772 7.23643 19.3608 3 13.3736 3C7.3865 3 3.97522 7.23643 2.47554 9.7615C2.01193 10.5367 1.76636 11.4301 1.76636 12.3415C1.76636 13.253 2.01193 14.1464 2.47554 14.9216C3.97522 17.4466 7.3865 21.6831 13.3736 21.6831C19.3608 21.6831 22.772 17.4466 24.2717 14.9216C24.7353 14.1464 24.9809 13.253 24.9809 12.3415C24.9809 11.4301 24.7353 10.5367 24.2717 9.7615ZM22.6231 13.875C21.3352 16.0402 18.42 19.6838 13.3736 19.6838C8.3273 19.6838 5.41206 16.0402 4.12413 13.875C3.84869 13.4142 3.70279 12.8832 3.70279 12.3415C3.70279 11.7999 3.84869 11.2689 4.12413 10.8081C5.41206 8.64291 8.3273 4.99926 13.3736 4.99926C18.42 4.99926 21.3352 8.63891 22.6231 10.8081C22.8986 11.2689 23.0445 11.7999 23.0445 12.3415C23.0445 12.8832 22.8986 13.4142 22.6231 13.875Z" fill="#151A2D"/>
<path d="M13.3741 7.34409C12.4179 7.34409 11.4831 7.63723 10.6881 8.18643C9.89307 8.73564 9.27341 9.51624 8.90749 10.4295C8.54157 11.3428 8.44583 12.3478 8.63237 13.3173C8.81892 14.2869 9.27937 15.1775 9.95549 15.8765C10.6316 16.5755 11.4931 17.0515 12.4309 17.2444C13.3687 17.4372 14.3408 17.3382 15.2242 16.9599C16.1076 16.5816 16.8626 15.941 17.3939 15.1191C17.9251 14.2971 18.2086 13.3308 18.2086 12.3422C18.2071 11.0171 17.6972 9.74676 16.7909 8.80977C15.8846 7.87278 14.6558 7.34568 13.3741 7.34409ZM13.3741 15.3411C12.8003 15.3411 12.2395 15.1652 11.7625 14.8357C11.2855 14.5062 10.9137 14.0378 10.6941 13.4899C10.4746 12.9419 10.4171 12.3389 10.529 11.7572C10.641 11.1755 10.9172 10.6411 11.3229 10.2217C11.7286 9.80231 12.2455 9.51669 12.8081 9.40098C13.3708 9.28526 13.9541 9.34465 14.4841 9.57163C15.0142 9.79861 15.4672 10.183 15.7859 10.6761C16.1047 11.1693 16.2748 11.7491 16.2748 12.3422C16.2748 13.1376 15.9692 13.9004 15.4252 14.4628C14.8812 15.0252 14.1434 15.3411 13.3741 15.3411Z" fill="#151A2D"/>
</svg>
